<svg width="1600" height="1180" viewBox="0 0 1600 1180" fill="none" xmlns="http://www.w3.org/2000/svg" role="img" aria-labelledby="title desc">
  <title id="title">SF Skills Ecosystem Overview</title>
  <desc id="desc">A workflow-oriented overview of the Salesforce skills ecosystem, grouped into Foundation, Integration, Development, Quality, AI and Automation, and DevOps and Tooling.</desc>

  <defs>
    <linearGradient id="bg" x1="120" y1="40" x2="1480" y2="1140" gradientUnits="userSpaceOnUse">
      <stop stop-color="#FAFBFF"/>
      <stop offset="1" stop-color="#FFFDF8"/>
    </linearGradient>
    <linearGradient id="laneFoundation" x1="0" y1="0" x2="1480" y2="0" gradientUnits="userSpaceOnUse">
      <stop stop-color="#F0F9FF"/>
      <stop offset="1" stop-color="#E0F2FE"/>
    </linearGradient>
    <linearGradient id="laneIntegration" x1="0" y1="0" x2="1480" y2="0" gradientUnits="userSpaceOnUse">
      <stop stop-color="#FFFBEB"/>
      <stop offset="1" stop-color="#FEF3C7"/>
    </linearGradient>
    <linearGradient id="laneDevelopment" x1="0" y1="0" x2="1480" y2="0" gradientUnits="userSpaceOnUse">
      <stop stop-color="#F5F7FF"/>
      <stop offset="1" stop-color="#E0E7FF"/>
    </linearGradient>
    <linearGradient id="laneQuality" x1="0" y1="0" x2="1480" y2="0" gradientUnits="userSpaceOnUse">
      <stop stop-color="#F7FEE7"/>
      <stop offset="1" stop-color="#ECFCCB"/>
    </linearGradient>
    <linearGradient id="laneAI" x1="0" y1="0" x2="1480" y2="0" gradientUnits="userSpaceOnUse">
      <stop stop-color="#FFF1F7"/>
      <stop offset="1" stop-color="#FCE7F3"/>
    </linearGradient>
    <linearGradient id="laneDevOps" x1="0" y1="0" x2="1480" y2="0" gradientUnits="userSpaceOnUse">
      <stop stop-color="#F0FDF4"/>
      <stop offset="1" stop-color="#DCFCE7"/>
    </linearGradient>
    <filter id="shadow" x="-20%" y="-20%" width="140%" height="160%" filterUnits="objectBoundingBox">
      <feDropShadow dx="0" dy="8" stdDeviation="12" flood-color="#0F172A" flood-opacity="0.08"/>
    </filter>
    <filter id="softShadow" x="-20%" y="-20%" width="140%" height="160%" filterUnits="objectBoundingBox">
      <feDropShadow dx="0" dy="4" stdDeviation="8" flood-color="#0F172A" flood-opacity="0.07"/>
    </filter>
    <marker id="arrowSlate" markerWidth="10" markerHeight="10" refX="8" refY="5" orient="auto">
      <path d="M0 0L10 5L0 10" fill="#64748B"/>
    </marker>
    <marker id="arrowRose" markerWidth="10" markerHeight="10" refX="8" refY="5" orient="auto">
      <path d="M0 0L10 5L0 10" fill="#BE185D"/>
    </marker>
    <marker id="arrowGreen" markerWidth="10" markerHeight="10" refX="8" refY="5" orient="auto">
      <path d="M0 0L10 5L0 10" fill="#059669"/>
    </marker>
  </defs>

  <rect x="24" y="24" width="1552" height="1132" rx="28" fill="url(#bg)" stroke="#E2E8F0"/>
  <rect x="64" y="64" width="1472" height="92" rx="24" fill="#FFFFFF" stroke="#E2E8F0" filter="url(#shadow)"/>

  <text x="92" y="102" fill="#0F172A" font-family="Segoe UI, Arial, sans-serif" font-size="34" font-weight="700">SF Skills Ecosystem</text>
  <text x="92" y="132" fill="#475569" font-family="Segoe UI, Arial, sans-serif" font-size="18">A workflow map for choosing the right skill cluster across build, validation, AI, integration, and delivery.</text>

  <g transform="translate(1080 82)">
    <rect x="0" y="0" width="118" height="42" rx="14" fill="#EEF2FF" stroke="#C7D2FE"/>
    <text x="59" y="27" text-anchor="middle" fill="#3730A3" font-family="Segoe UI, Arial, sans-serif" font-size="18" font-weight="700">19 skills</text>
  </g>
  <g transform="translate(1212 82)">
    <rect x="0" y="0" width="118" height="42" rx="14" fill="#ECFDF5" stroke="#A7F3D0"/>
    <text x="59" y="27" text-anchor="middle" fill="#065F46" font-family="Segoe UI, Arial, sans-serif" font-size="18" font-weight="700">7 agents</text>
  </g>
  <g transform="translate(1344 82)">
    <rect x="0" y="0" width="148" height="42" rx="14" fill="#FFF7ED" stroke="#FED7AA"/>
    <text x="74" y="27" text-anchor="middle" fill="#9A3412" font-family="Segoe UI, Arial, sans-serif" font-size="18" font-weight="700">hooks + LSP</text>
  </g>

  <!-- Lane: Foundation -->
  <g transform="translate(60 182)">
    <rect x="0" y="0" width="1480" height="120" rx="24" fill="url(#laneFoundation)" stroke="#7DD3FC"/>
    <text x="28" y="34" fill="#0369A1" font-family="Avenir Next, Segoe UI, Arial, sans-serif" font-size="15" font-weight="700" letter-spacing="1.6">FOUNDATION</text>
    <text x="28" y="58" fill="#334155" font-family="Segoe UI, Arial, sans-serif" font-size="17">Metadata, data, and access context used across implementation work.</text>

    <g filter="url(#softShadow)">
      <rect x="270" y="26" width="240" height="64" rx="18" fill="#FFFFFF" stroke="#38BDF8"/>
      <text x="390" y="64" text-anchor="middle" fill="#0F172A" font-family="Segoe UI, Arial, sans-serif" font-size="22" font-weight="700">sf-metadata</text>

      <rect x="620" y="26" width="200" height="64" rx="18" fill="#FFFFFF" stroke="#38BDF8"/>
      <text x="720" y="64" text-anchor="middle" fill="#0F172A" font-family="Segoe UI, Arial, sans-serif" font-size="22" font-weight="700">sf-data</text>

      <rect x="930" y="26" width="260" height="64" rx="18" fill="#FFFFFF" stroke="#38BDF8"/>
      <text x="1060" y="64" text-anchor="middle" fill="#0F172A" font-family="Segoe UI, Arial, sans-serif" font-size="22" font-weight="700">sf-permissions</text>
    </g>
  </g>

  <!-- Lane: Integration -->
  <g transform="translate(60 324)">
    <rect x="0" y="0" width="1480" height="120" rx="24" fill="url(#laneIntegration)" stroke="#FBBF24"/>
    <text x="28" y="34" fill="#B45309" font-family="Avenir Next, Segoe UI, Arial, sans-serif" font-size="15" font-weight="700" letter-spacing="1.6">INTEGRATION</text>
    <text x="28" y="58" fill="#334155" font-family="Segoe UI, Arial, sans-serif" font-size="17">OAuth, credentials, callouts, events, and external service patterns.</text>

    <g filter="url(#softShadow)">
      <rect x="392" y="26" width="300" height="64" rx="18" fill="#FFFFFF" stroke="#F59E0B"/>
      <text x="542" y="64" text-anchor="middle" fill="#0F172A" font-family="Segoe UI, Arial, sans-serif" font-size="22" font-weight="700">sf-connected-apps</text>

      <rect x="812" y="26" width="260" height="64" rx="18" fill="#FFFFFF" stroke="#F59E0B"/>
      <text x="942" y="64" text-anchor="middle" fill="#0F172A" font-family="Segoe UI, Arial, sans-serif" font-size="22" font-weight="700">sf-integration</text>
    </g>
  </g>

  <!-- Lane: Development -->
  <g transform="translate(60 466)">
    <rect x="0" y="0" width="1480" height="132" rx="24" fill="url(#laneDevelopment)" stroke="#A5B4FC"/>
    <text x="28" y="34" fill="#4338CA" font-family="Avenir Next, Segoe UI, Arial, sans-serif" font-size="15" font-weight="700" letter-spacing="1.6">DEVELOPMENT</text>
    <text x="28" y="58" fill="#334155" font-family="Segoe UI, Arial, sans-serif" font-size="17">Core implementation skills for Apex, Flow, LWC, and query design.</text>

    <g filter="url(#softShadow)">
      <rect x="162" y="34" width="230" height="64" rx="18" fill="#FFFFFF" stroke="#818CF8"/>
      <text x="277" y="72" text-anchor="middle" fill="#0F172A" font-family="Segoe UI, Arial, sans-serif" font-size="22" font-weight="700">sf-apex</text>

      <rect x="472" y="34" width="230" height="64" rx="18" fill="#FFFFFF" stroke="#818CF8"/>
      <text x="587" y="72" text-anchor="middle" fill="#0F172A" font-family="Segoe UI, Arial, sans-serif" font-size="22" font-weight="700">sf-flow</text>

      <rect x="782" y="34" width="230" height="64" rx="18" fill="#FFFFFF" stroke="#818CF8"/>
      <text x="897" y="72" text-anchor="middle" fill="#0F172A" font-family="Segoe UI, Arial, sans-serif" font-size="22" font-weight="700">sf-lwc</text>

      <rect x="1092" y="34" width="230" height="64" rx="18" fill="#FFFFFF" stroke="#818CF8"/>
      <text x="1207" y="72" text-anchor="middle" fill="#0F172A" font-family="Segoe UI, Arial, sans-serif" font-size="22" font-weight="700">sf-soql</text>
    </g>
  </g>

  <!-- Lane: Quality -->
  <g transform="translate(60 620)">
    <rect x="0" y="0" width="1480" height="120" rx="24" fill="url(#laneQuality)" stroke="#A3E635"/>
    <text x="28" y="34" fill="#4D7C0F" font-family="Avenir Next, Segoe UI, Arial, sans-serif" font-size="15" font-weight="700" letter-spacing="1.6">QUALITY</text>
    <text x="28" y="58" fill="#334155" font-family="Segoe UI, Arial, sans-serif" font-size="17">Testing, coverage, and debug feedback loops that reinforce delivery.</text>

    <g filter="url(#softShadow)">
      <rect x="470" y="26" width="220" height="64" rx="18" fill="#FFFFFF" stroke="#84CC16"/>
      <text x="580" y="64" text-anchor="middle" fill="#0F172A" font-family="Segoe UI, Arial, sans-serif" font-size="22" font-weight="700">sf-testing</text>

      <rect x="820" y="26" width="220" height="64" rx="18" fill="#FFFFFF" stroke="#84CC16"/>
      <text x="930" y="64" text-anchor="middle" fill="#0F172A" font-family="Segoe UI, Arial, sans-serif" font-size="22" font-weight="700">sf-debug</text>
    </g>
  </g>

  <!-- Lane: AI -->
  <g transform="translate(60 762)">
    <rect x="0" y="0" width="1480" height="186" rx="24" fill="url(#laneAI)" stroke="#F9A8D4"/>
    <text x="28" y="34" fill="#BE185D" font-family="Avenir Next, Segoe UI, Arial, sans-serif" font-size="15" font-weight="700" letter-spacing="1.6">AI &amp; AUTOMATION</text>
    <text x="28" y="58" fill="#334155" font-family="Segoe UI, Arial, sans-serif" font-size="17">Agentforce-centered workflows spanning Agent Script, persona, testing, and observability.</text>

    <g filter="url(#softShadow)">
      <rect x="120" y="28" width="252" height="58" rx="18" fill="#FFFFFF" stroke="#EC4899"/>
      <text x="246" y="63" text-anchor="middle" fill="#0F172A" font-family="Segoe UI, Arial, sans-serif" font-size="20" font-weight="700">sf-ai-agentscript</text>

      <rect x="408" y="28" width="270" height="58" rx="18" fill="#FFFFFF" stroke="#EC4899"/>
      <text x="543" y="56" text-anchor="middle" fill="#0F172A" font-family="Segoe UI, Arial, sans-serif" font-size="18" font-weight="700">sf-ai-agentforce-</text>
      <text x="543" y="76" text-anchor="middle" fill="#0F172A" font-family="Segoe UI, Arial, sans-serif" font-size="18" font-weight="700">persona</text>

      <rect x="802" y="28" width="290" height="58" rx="18" fill="#FFFFFF" stroke="#EC4899"/>
      <text x="947" y="56" text-anchor="middle" fill="#0F172A" font-family="Segoe UI, Arial, sans-serif" font-size="18" font-weight="700">sf-ai-agentforce-</text>
      <text x="947" y="76" text-anchor="middle" fill="#0F172A" font-family="Segoe UI, Arial, sans-serif" font-size="18" font-weight="700">testing</text>

      <rect x="1126" y="28" width="294" height="58" rx="18" fill="#FFFFFF" stroke="#EC4899"/>
      <text x="1273" y="56" text-anchor="middle" fill="#0F172A" font-family="Segoe UI, Arial, sans-serif" font-size="17" font-weight="700">sf-ai-agentforce-</text>
      <text x="1273" y="76" text-anchor="middle" fill="#0F172A" font-family="Segoe UI, Arial, sans-serif" font-size="17" font-weight="700">observability</text>

      <rect x="560" y="106" width="360" height="64" rx="20" fill="#FFFFFF" stroke="#DB2777" stroke-width="2"/>
      <text x="740" y="145" text-anchor="middle" fill="#831843" font-family="Segoe UI, Arial, sans-serif" font-size="24" font-weight="800">sf-ai-agentforce</text>
    </g>
  </g>

  <!-- Lane: DevOps -->
  <g transform="translate(60 970)">
    <rect x="0" y="0" width="1480" height="138" rx="24" fill="url(#laneDevOps)" stroke="#86EFAC"/>
    <text x="28" y="34" fill="#047857" font-family="Avenir Next, Segoe UI, Arial, sans-serif" font-size="15" font-weight="700" letter-spacing="1.6">DEVOPS &amp; TOOLING</text>
    <text x="28" y="58" fill="#334155" font-family="Segoe UI, Arial, sans-serif" font-size="17">Delivery, architecture communication, and visual documentation workflows.</text>

    <g filter="url(#softShadow)">
      <rect x="280" y="36" width="220" height="64" rx="18" fill="#FFFFFF" stroke="#10B981"/>
      <text x="390" y="74" text-anchor="middle" fill="#0F172A" font-family="Segoe UI, Arial, sans-serif" font-size="22" font-weight="700">sf-deploy</text>

      <rect x="610" y="36" width="310" height="64" rx="18" fill="#FFFFFF" stroke="#10B981"/>
      <text x="765" y="74" text-anchor="middle" fill="#0F172A" font-family="Segoe UI, Arial, sans-serif" font-size="21" font-weight="700">sf-diagram-mermaid</text>

      <rect x="1030" y="36" width="360" height="64" rx="18" fill="#FFFFFF" stroke="#10B981"/>
      <text x="1210" y="74" text-anchor="middle" fill="#0F172A" font-family="Segoe UI, Arial, sans-serif" font-size="19" font-weight="700">sf-diagram-nanobananapro</text>
    </g>
  </g>

  <!-- Connectors -->
  <g stroke-linecap="round" stroke-linejoin="round" fill="none">
    <path d="M450 272 C450 330 320 370 320 498" stroke="#64748B" stroke-width="3" marker-end="url(#arrowSlate)"/>
    <path d="M450 272 C450 332 610 372 610 498" stroke="#64748B" stroke-width="3" marker-end="url(#arrowSlate)"/>
    <text x="468" y="334" fill="#475569" font-family="Segoe UI, Arial, sans-serif" font-size="16">schema + metadata context</text>

    <path d="M720 272 C720 394 580 454 580 646" stroke="#64748B" stroke-width="3" marker-end="url(#arrowSlate)"/>
    <text x="737" y="462" fill="#475569" font-family="Segoe UI, Arial, sans-serif" font-size="16">test data + fixtures</text>

    <path d="M1060 272 C1060 455 740 520 740 868" stroke="#64748B" stroke-width="3" marker-end="url(#arrowSlate)"/>
    <text x="1076" y="548" fill="#475569" font-family="Segoe UI, Arial, sans-serif" font-size="16">access model</text>

    <path d="M692 382 C748 382 760 382 812 382" stroke="#64748B" stroke-width="3" marker-end="url(#arrowSlate)"/>
    <text x="718" y="368" fill="#475569" font-family="Segoe UI, Arial, sans-serif" font-size="16">OAuth + ECA setup</text>

    <path d="M942 414 C942 458 277 446 277 498" stroke="#64748B" stroke-width="3" marker-end="url(#arrowSlate)"/>
    <path d="M942 414 C942 460 587 446 587 498" stroke="#64748B" stroke-width="3" marker-end="url(#arrowSlate)"/>
    <text x="958" y="450" fill="#475569" font-family="Segoe UI, Arial, sans-serif" font-size="16">callouts + orchestration</text>

    <path d="M1207 530 C1207 590 720 590 720 646" stroke="#64748B" stroke-width="3" marker-end="url(#arrowSlate)"/>
    <text x="1045" y="612" fill="#475569" font-family="Segoe UI, Arial, sans-serif" font-size="16">query patterns</text>

    <path d="M580 710 C580 690 277 690 277 562" stroke="#64748B" stroke-width="3" marker-end="url(#arrowSlate)"/>
    <path d="M580 710 C580 690 587 690 587 562" stroke="#64748B" stroke-width="3" marker-end="url(#arrowSlate)"/>
    <text x="338" y="696" fill="#475569" font-family="Segoe UI, Arial, sans-serif" font-size="16">validates</text>

    <path d="M930 710 C930 684 277 684 277 562" stroke="#64748B" stroke-width="3" marker-end="url(#arrowSlate)"/>
    <text x="936" y="696" fill="#475569" font-family="Segoe UI, Arial, sans-serif" font-size="16">troubleshoots</text>

    <path d="M246 848 C420 848 490 848 560 868" stroke="#BE185D" stroke-width="3" marker-end="url(#arrowRose)"/>
    <path d="M543 848 C620 848 640 848 680 868" stroke="#BE185D" stroke-width="3" marker-end="url(#arrowRose)"/>
    <path d="M947 848 C900 848 880 848 820 868" stroke="#BE185D" stroke-width="3" marker-end="url(#arrowRose)"/>
    <path d="M1273 848 C1110 848 1020 848 920 868" stroke="#BE185D" stroke-width="3" marker-end="url(#arrowRose)"/>
    <text x="612" y="838" fill="#9D174D" font-family="Segoe UI, Arial, sans-serif" font-size="16">voice, tests, traces, and deterministic flows converge on Agentforce</text>

    <path d="M390 1038 C390 972 277 972 277 562" stroke="#059669" stroke-width="4" marker-end="url(#arrowGreen)"/>
    <path d="M390 1038 C390 972 587 972 587 562" stroke="#059669" stroke-width="4" marker-end="url(#arrowGreen)"/>
    <path d="M390 1038 C390 972 897 972 897 562" stroke="#059669" stroke-width="4" marker-end="url(#arrowGreen)"/>
    <path d="M390 1038 C390 972 740 972 740 868" stroke="#059669" stroke-width="4" marker-end="url(#arrowGreen)"/>
    <text x="406" y="1018" fill="#047857" font-family="Segoe UI, Arial, sans-serif" font-size="17" font-weight="700">sf-deploy ships app and agent assets</text>
  </g>

  <rect x="64" y="1124" width="1472" height="16" rx="8" fill="#E2E8F0"/>
  <rect x="64" y="1124" width="676" height="16" rx="8" fill="#4F46E5" opacity="0.16"/>
  <rect x="740" y="1124" width="420" height="16" rx="8" fill="#BE185D" opacity="0.16"/>
  <rect x="1160" y="1124" width="376" height="16" rx="8" fill="#059669" opacity="0.16"/>
</svg>
